<?xml version="1.0" standalone="no"?>
<!DOCTYPE svg PUBLIC "-//W3C//DTD SVG 20010904//EN"
 "http://www.w3.org/TR/2001/REC-SVG-20010904/DTD/svg10.dtd">
<svg version="1.0" xmlns="http://www.w3.org/2000/svg"
 width="145.000000pt" height="181.000000pt" viewBox="0 0 145.000000 181.000000"
 preserveAspectRatio="xMidYMid meet">

<g transform="translate(0.000000,181.000000) scale(0.100000,-0.100000)"
fill="#fff" stroke="none">
<path d="M647 1794 c-87 -27 -224 -177 -300 -329 -33 -68 -75 -195 -83 -255
-8 -59 4 -97 48 -152 21 -27 28 -43 20 -46 -25 -8 -118 -76 -160 -115 -33 -32
-51 -64 -81 -142 -103 -263 -106 -372 -13 -468 32 -34 80 -67 97 -67 3 0 5
126 5 279 l0 280 24 28 24 28 444 3 c475 4 535 1 570 -28 23 -18 23 -20 26
-309 2 -160 7 -291 11 -291 4 0 39 30 78 68 93 90 100 115 73 248 -25 120 -53
210 -87 277 -34 69 -113 149 -179 184 -29 15 -54 31 -54 35 0 4 13 22 29 40
65 75 67 122 12 278 -56 158 -110 249 -211 351 -72 74 -93 89 -139 103 -66 19
-91 19 -154 0z m159 -79 c28 -14 61 -36 74 -50 l23 -25 -136 0 -137 0 0 -30 0
-30 165 0 c152 0 165 -1 175 -19 20 -39 15 -41 -141 -41 l-150 0 3 -27 3 -28
170 -3 c145 -2 172 -5 183 -19 6 -9 12 -20 12 -25 0 -4 -60 -9 -132 -10 l-133
-3 -3 -27 -3 -28 119 0 c162 0 181 -5 199 -48 8 -19 12 -36 9 -39 -2 -3 -35 0
-73 7 -162 27 -440 24 -652 -7 -42 -6 -43 -5 -36 18 14 48 74 182 107 237 18
31 65 89 103 128 97 98 159 115 251 69z m154 -518 c0 -136 -110 -257 -233
-257 -126 0 -237 120 -237 257 l0 33 235 0 235 0 0 -33z"/>
<path d="M692 1108 c3 -52 4 -53 36 -56 17 -2 32 1 32 7 0 15 -54 101 -63 101
-4 0 -7 -24 -5 -52z"/>
<path d="M236 764 c-3 -9 -6 -177 -6 -374 0 -294 2 -360 14 -369 10 -9 141
-12 482 -11 428 0 470 2 482 17 16 22 18 704 2 734 -10 18 -26 19 -489 19
-427 0 -480 -2 -485 -16z m557 -58 c90 -38 132 -148 93 -241 -9 -20 -12 -49
-9 -70 l6 -35 -41 0 c-41 0 -52 -11 -52 -51 0 -17 -8 -19 -70 -19 l-70 0 0 29
c0 30 -18 41 -68 41 -20 0 -22 3 -16 38 4 24 0 56 -10 86 -50 147 96 283 237
222z m367 -571 l0 -25 -435 0 -435 0 0 25 0 25 435 0 435 0 0 -25z"/>
<path d="M580 511 c0 -30 35 -61 70 -61 23 0 33 7 45 29 8 17 12 32 7 34 -4 3
-33 8 -64 12 -55 7 -58 6 -58 -14z"/>
<path d="M780 523 c-38 -7 -45 -19 -26 -47 30 -47 106 -24 106 32 0 23 -18 26
-80 15z"/>
<path d="M727 434 c-7 -8 23 -64 35 -64 16 0 18 21 2 45 -17 25 -26 30 -37 19z"/>
</g>
</svg>
